HIERARCHY
ROOT Hips
{
	OFFSET 0.000000 8.830580 0.000000
	CHANNELS 6 Xposition Yposition Zposition Zrotation Yrotation Xrotation 
	JOINT Spine
	{
		OFFSET 0.000000 0.010000 0.000000
		CHANNELS 3 Zrotation Yrotation Xrotation
		JOINT Spine1
		{
			OFFSET 0.000000 2.459130 0.000000
			CHANNELS 3 Zrotation Yrotation Xrotation
			JOINT Neck
			{
				OFFSET 0.000000 2.484630 0.000000
				CHANNELS 3 Zrotation Yrotation Xrotation
				JOINT Head_virtual
				{
					OFFSET 0.000000 0.000000 0.000000
					CHANNELS 3 Zrotation Yrotation Xrotation
					JOINT Head
					{
						OFFSET 0.000000 0.927525 0.000000
						CHANNELS 3 Zrotation Yrotation Xrotation
						End Site
						{
							OFFSET 0.000000 0.000000 0.000000
						}
					}
				}
				JOINT LeftUpArm_virtual
				{
					OFFSET 0.000000 0.000000 0.000000
					CHANNELS 3 Zrotation Yrotation Xrotation
					JOINT LeftUpArm
					{
						OFFSET 1.248820 0.000000 0.000000
						CHANNELS 3 Zrotation Yrotation Xrotation
						JOINT LeftForeArm
						{
							OFFSET 2.597580 0.000000 0.000000
							CHANNELS 3 Zrotation Yrotation Xrotation
							JOINT LeftHand
							{
								OFFSET 2.455420 0.000000 0.000000
								CHANNELS 3 Zrotation Yrotation Xrotation
								End Site
								{
									OFFSET 0.000000 0.000000 0.000000
								}
							}
						}
					}
				}
				JOINT RightUpArm_virtual
				{
					OFFSET -0.000000 -0.000000 -0.000000
					CHANNELS 3 Zrotation Yrotation Xrotation
					JOINT RightUpArm
					{
						OFFSET -1.248820 -0.000000 -0.000000
						CHANNELS 3 Zrotation Yrotation Xrotation
						JOINT RightForeArm
						{
							OFFSET -2.597580 -0.000000 -0.000000
							CHANNELS 3 Zrotation Yrotation Xrotation
							JOINT RightHand
							{
								OFFSET -2.455420 -0.000000 -0.000000
								CHANNELS 3 Zrotation Yrotation Xrotation
								End Site
								{
									OFFSET 0.000000 0.000000 0.000000
								}
							}
						}
					}
				}
			}
		}
	}
	JOINT LeftUpLeg
	{
		OFFSET 1.271939 0.000000 0.000000
		CHANNELS 3 Zrotation Yrotation Xrotation
		JOINT LeftLowLeg
		{
			OFFSET 0.000000 -4.342910 0.000000
			CHANNELS 3 Zrotation Yrotation Xrotation
			JOINT LeftFoot
			{
				OFFSET 0.000000 -4.487670 0.000000
				CHANNELS 3 Zrotation Yrotation Xrotation
				JOINT LeftToeBase
				{
					OFFSET 0.000000 0.000000 1.515070
					CHANNELS 3 Zrotation Yrotation Xrotation
					End Site
					{
						OFFSET 0.000000 0.000000 0.000000
					}
				}
			}
		}
	}
	JOINT RightUpLeg
	{
		OFFSET -1.271939 0.000000 0.000000
		CHANNELS 3 Zrotation Yrotation Xrotation
		JOINT RightLowLeg
		{
			OFFSET 0.000000 -4.342910 0.000000
			CHANNELS 3 Zrotation Yrotation Xrotation
			JOINT RightFoot
			{
				OFFSET 0.000000 -4.487670 0.000000
				CHANNELS 3 Zrotation Yrotation Xrotation
				JOINT RightToeBase
				{
					OFFSET 0.000000 0.000000 1.515070
					CHANNELS 3 Zrotation Yrotation Xrotation
					End Site
					{
						OFFSET 0.000000 0.000000 0.000000
					}
				}
			}
		}
	}
}
MOTION
Frames: 12
Frame Time: 0.041667
-15.543011 8.992749 41.263487 -175.628535 -7.123286 -160.008998 1.506509 2.322836 -19.742895 -3.172498 -3.978560 2.382034 0.000000 0.000000 0.000000 12.307533 -3.163554 8.188037 -15.075910 -0.200823 -77.834732 -16.850800 7.346740 4.153270 -53.834599 4.281970 -27.947998 0.000000 -64.194801 0.000000 14.872600 34.181198 -25.869101 18.721600 -13.279600 -2.942790 46.763000 -10.729400 -25.420013 -180.000000 69.554001 -180.000000 -3.141820 -38.769299 -70.492699 1.549158 -11.388210 -16.927713 0.000000 0.000000 0.843626 -2.030954 17.058639 -1.189017 0.000000 0.000000 -10.039310 1.703500 22.586511 -21.916827 0.000000 0.000000 24.566000 7.544321 -22.552940 -2.023287 0.000000 0.000000 -24.380650 
-15.542698 8.993643 41.261771 -175.597232 -7.305523 -160.027094 1.542378 2.292931 -19.798313 -3.172728 -4.029861 2.400799 0.000000 0.000000 0.000000 12.327305 -3.177379 8.260772 -15.085665 -0.208151 -77.835456 -16.879801 7.344980 4.128020 -53.784500 4.192710 -27.759003 0.000000 -64.196503 0.000000 14.914000 34.158501 -25.754999 18.738600 -13.330000 -2.993770 46.816502 -10.776000 -25.487000 180.000000 69.207001 180.000000 -3.175920 -39.066700 -70.417000 1.585327 -11.369603 -16.927392 0.000000 0.000000 0.850589 -1.987148 16.908032 -1.160157 0.000000 0.000000 -10.036420 1.802547 22.677858 -21.842555 0.000000 0.000000 24.487200 7.549357 -22.929694 -1.981963 0.000000 0.000000 -24.420040 
-15.541662 8.995224 41.259264 -175.552313 -7.463226 -160.043473 1.557889 2.270334 -19.874158 -3.132388 -4.056728 2.440819 0.000000 0.000000 0.000000 12.358363 -3.198286 8.264815 -15.076488 -0.219341 -77.889560 -16.910700 7.347100 4.137470 -53.782398 4.080690 -27.623993 0.000000 -64.202797 0.000000 14.963900 34.161701 -25.751801 18.776501 -13.365600 -3.041030 46.820000 -10.760000 -25.566986 -180.000000 68.896004 -180.000000 -2.774470 -39.105999 -70.118797 1.626639 -11.287729 -16.925362 0.000000 0.000000 0.872295 -2.002571 16.680111 -1.152814 0.000000 0.000000 -10.044130 1.934454 22.679592 -21.723426 0.000000 0.000000 24.330099 7.531899 -23.217964 -1.918093 0.000000 0.000000 -24.375910 
-15.540705 8.996552 41.257646 -175.530743 -7.542656 -160.045802 1.549509 2.257990 -19.921922 -3.093368 -4.059532 2.455505 0.000000 0.000000 0.000000 12.363911 -3.190097 8.210330 -15.036393 -0.216226 -77.933809 -16.906099 7.360180 4.156290 -53.855900 3.994850 -27.602997 0.000000 -64.203697 0.000000 14.941200 34.147900 -25.784300 18.829000 -13.392500 -3.112540 46.755798 -10.687000 -25.468994 -180.000000 68.695999 -180.000000 -3.377430 -39.226799 -70.167603 1.633424 -11.183069 -16.922305 0.000000 0.000000 0.881177 -2.017669 16.495690 -1.143992 0.000000 0.000000 -10.056430 2.009564 22.656550 -21.624000 0.000000 0.000000 24.169201 7.481066 -23.368015 -1.859031 0.000000 0.000000 -24.354100 
-15.538816 8.998780 41.254239 -175.498299 -7.650600 -160.032498 1.513497 2.245162 -20.022426 -3.020083 -4.041172 2.470937 0.000000 0.000000 0.000000 12.488607 -3.295867 8.057263 -15.049449 -0.189182 -77.998570 -16.881500 7.338030 4.178340 -54.024399 3.961010 -27.615997 0.000000 -64.236397 0.000000 14.792700 34.105000 -25.959400 18.844999 -13.410400 -3.173010 46.716099 -10.544600 -25.358002 -180.000000 68.387001 -180.000000 -3.705050 -39.332001 -69.586700 1.615238 -10.931754 -16.922263 0.000000 0.000000 0.889440 -2.030610 16.156516 -1.112024 0.000000 0.000000 -10.082590 2.115023 22.596225 -21.415969 0.000000 0.000000 23.796499 7.367429 -23.525840 -1.756763 0.000000 0.000000 -24.270560 
-15.537423 9.000138 41.251710 -175.472893 -7.696788 -160.012137 1.488400 2.258323 -20.086172 -2.974318 -4.010508 2.438044 0.000000 0.000000 0.000000 12.585942 -3.360783 7.895985 -15.010162 -0.145354 -78.036270 -16.874599 7.312300 4.183870 -54.136101 4.017470 -27.614990 0.000000 -64.283302 0.000000 14.731400 34.119999 -25.882500 18.842400 -13.425500 -3.221810 46.643398 -10.505400 -25.350006 -180.000000 68.100998 180.000000 -3.094970 -39.198299 -70.052696 1.600126 -10.763805 -16.923588 0.000000 0.000000 0.884030 -1.994104 15.990548 -1.091227 0.000000 0.000000 -10.053200 2.165029 22.542716 -21.265908 0.000000 0.000000 23.504700 7.357848 -23.500557 -1.710732 0.000000 0.000000 -24.205400 
-15.535684 9.001007 41.248279 -175.445610 -7.740057 -159.975182 1.469450 2.278429 -20.174341 -2.951710 -3.977232 2.409346 0.000000 0.000000 0.000000 12.718799 -3.446287 7.729599 -15.018662 -0.069919 -78.049404 -16.880400 7.302490 4.161580 -54.224602 4.066570 -27.644989 0.000000 -64.297401 0.000000 14.813900 34.087002 -25.773199 18.817600 -13.418700 -3.269300 46.613899 -10.371800 -25.165985 180.000000 67.858002 180.000000 -4.053880 -39.693100 -67.444298 1.616093 -10.690411 -16.947287 0.000000 0.000000 0.885598 -1.935715 15.952005 -1.081033 0.000000 0.000000 -10.060350 2.205274 22.467892 -21.095663 0.000000 0.000000 23.151800 7.333330 -23.405040 -1.678001 0.000000 0.000000 -24.121030 
-15.533561 9.001111 41.245295 -175.428069 -7.735746 -159.916017 1.433860 2.302286 -20.278988 -2.929236 -3.927796 2.384875 0.000000 0.000000 0.000000 12.840488 -3.511194 7.523006 -14.996569 0.029314 -78.030332 -16.910700 7.333640 4.127630 -54.245998 4.130010 -27.605011 0.000000 -64.308296 0.000000 15.041100 34.091000 -25.489901 18.785400 -13.397100 -3.316230 46.558201 -10.225200 -25.175995 180.000000 67.791000 180.000000 -2.242540 -38.960300 -67.396896 1.657019 -10.718007 -16.999642 0.000000 0.000000 0.895253 -1.900153 16.044568 -1.105154 0.000000 0.000000 -10.052150 2.189796 22.481615 -20.945259 0.000000 0.000000 22.775999 7.338120 -23.289053 -1.680020 0.000000 0.000000 -24.018910 
-15.531335 9.000538 41.241387 -175.435508 -7.728917 -159.861042 1.382810 2.332271 -20.401551 -2.924090 -3.860196 2.376765 0.000000 0.000000 0.000000 12.977444 -3.596833 7.327582 -14.983196 0.121302 -78.008905 -16.970800 7.326870 4.124300 -54.186298 4.226290 -27.519989 0.000000 -64.323097 0.000000 15.083000 34.137600 -25.682800 18.809000 -13.372800 -3.330080 46.410801 -10.165800 -24.989990 180.000000 67.517998 180.000000 -2.911870 -38.564602 -70.244698 1.697156 -10.825381 -17.050351 0.000000 0.000000 0.922170 -1.790660 16.227553 -1.102530 0.000000 0.000000 -10.116540 2.143682 22.606550 -20.754922 0.000000 0.000000 22.350201 7.369171 -23.310405 -1.748239 0.000000 0.000000 -23.837990 
-15.528361 8.999801 41.236657 -175.454510 -7.707112 -159.827968 1.315392 2.367069 -20.533109 -2.932425 -3.773198 2.410558 0.000000 0.000000 0.000000 13.152660 -3.718061 7.168535 -14.994634 0.197397 -78.023003 -17.082701 7.293090 4.141080 -54.034801 4.363220 -27.412994 0.000000 -64.382599 0.000000 15.187300 34.043499 -25.951200 18.853901 -13.329000 -3.358410 46.267399 -9.999390 -24.850006 -180.000000 67.400002 -180.000000 -3.191850 -38.360100 -70.065002 1.716250 -10.896308 -17.071561 0.000000 0.000000 0.950213 -1.851676 16.321933 -1.177982 0.000000 0.000000 -10.061740 2.135965 22.562499 -20.541297 0.000000 0.000000 21.961201 7.362210 -23.180458 -1.800715 0.000000 0.000000 -23.688850 
-15.525207 8.998961 41.232707 -175.492058 -7.655091 -159.795654 1.240070 2.411307 -20.631700 -2.961822 -3.675951 2.396573 0.000000 0.000000 0.000000 13.231511 -3.738120 7.075996 -14.891893 0.246607 -78.051610 -17.117599 7.286830 4.142220 -54.006401 4.377290 -27.506989 0.000000 -64.297501 0.000000 15.260100 34.141800 -25.864500 18.878599 -13.266400 -3.350890 46.158298 -9.918130 -24.808014 -180.000000 67.300003 -180.000000 -2.949900 -37.938499 -69.830902 1.694903 -10.899021 -17.076107 0.000000 0.000000 0.963049 -1.840517 16.380645 -1.209502 0.000000 0.000000 -10.026400 2.099139 22.499723 -20.328508 0.000000 0.000000 21.556299 7.335184 -22.996504 -1.845836 0.000000 0.000000 -23.540320 
-15.522246 8.997551 41.229255 -175.553061 -7.588047 -159.738119 1.249480 2.616125 -20.431244 -3.251230 -3.542131 1.802675 0.000000 0.000000 0.000000 13.607270 -4.003125 7.195397 -14.922607 0.331708 -78.010723 -16.991699 7.228860 4.660910 -53.958500 4.295150 -27.597992 0.000000 -64.310204 0.000000 15.391000 34.182301 -25.800400 18.959000 -13.474100 -3.106470 46.057999 -9.790530 -24.639008 -180.000000 67.177002 -180.000000 -3.416670 -37.909199 -69.719902 1.632442 -10.840376 -17.093760 0.000000 0.000000 0.964010 -1.846173 16.379367 -1.240241 0.000000 0.000000 -10.012410 2.041026 22.476233 -20.148839 0.000000 0.000000 21.177500 7.258329 -22.941818 -1.930773 0.000000 0.000000 -23.331000 
